<svg width="95" height="95" viewBox="0 0 95 95" fill="none" xmlns="http://www.w3.org/2000/svg">
<g filter="url(#filter0_i)">
<path d="M55.8496 47.5C55.8496 52.1111 52.1111 55.8496 47.5 55.8496C42.8889 55.8496 39.1504 52.1111 39.1504 47.5C39.1504 42.8889 42.8889 39.1504 47.5 39.1504C52.1111 39.1504 55.8496 42.8889 55.8496 47.5Z" fill="white"/>
<path d="M61.6016 22.2656H33.3984C27.2594 22.2656 22.2656 27.2594 22.2656 33.3984V61.6016C22.2656 67.7406 27.2594 72.7344 33.3984 72.7344H61.6016C67.7406 72.7344 72.7344 67.7406 72.7344 61.6016V33.3984C72.7344 27.2594 67.7406 22.2656 61.6016 22.2656ZM47.5 61.416C39.8266 61.416 33.584 55.1734 33.584 47.5C33.584 39.8266 39.8266 33.584 47.5 33.584C55.1734 33.584 61.416 39.8266 61.416 47.5C61.416 55.1734 55.1734 61.416 47.5 61.416ZM63.457 34.3262C61.9197 34.3262 60.6738 33.0803 60.6738 31.543C60.6738 30.0057 61.9197 28.7598 63.457 28.7598C64.9943 28.7598 66.2402 30.0057 66.2402 31.543C66.2402 33.0803 64.9943 34.3262 63.457 34.3262Z" fill="white"/>
<path d="M69.9512 0H25.0488C11.2372 0 0 11.2372 0 25.0488V69.9512C0 83.7628 11.2372 95 25.0488 95H69.9512C83.7628 95 95 83.7628 95 69.9512V25.0488C95 11.2372 83.7628 0 69.9512 0ZM78.3008 61.6016C78.3008 70.8093 70.8093 78.3008 61.6016 78.3008H33.3984C24.1907 78.3008 16.6992 70.8093 16.6992 61.6016V33.3984C16.6992 24.1907 24.1907 16.6992 33.3984 16.6992H61.6016C70.8093 16.6992 78.3008 24.1907 78.3008 33.3984V61.6016Z" fill="white"/>
</g>
<defs>
<filter id="filter0_i" x="0" y="0" width="95" height="99" filterUnits="userSpaceOnUse" color-interpolation-filters="sRGB">
<feFlood flood-opacity="0" result="BackgroundImageFix"/>
<feBlend mode="normal" in="SourceGraphic" in2="BackgroundImageFix" result="shape"/>
<feColorMatrix in="SourceAlpha" type="matrix" values="0 0 0 0 0 0 0 0 0 0 0 0 0 0 0 0 0 0 127 0" result="hardAlpha"/>
<feOffset dy="4"/>
<feGaussianBlur stdDeviation="2"/>
<feComposite in2="hardAlpha" operator="arithmetic" k2="-1" k3="1"/>
<feColorMatrix type="matrix" values="0 0 0 0 0 0 0 0 0 0 0 0 0 0 0 0 0 0 0.25 0"/>
<feBlend mode="normal" in2="shape" result="effect1_innerShadow"/>
</filter>
</defs>
</svg>
